<?xml version="1.0" encoding="UTF-8"?><svg xmlns="http://www.w3.org/2000/svg" xmlns:xlink="http://www.w3.org/1999/xlink" height="422.3" id="Layer_1" preserveAspectRatio="xMidYMid meet" version="1.1" viewBox="-0.2 0.0 501.2 422.3" width="501.2" x="0" xml:space="preserve" y="0" zoomAndPan="magnify"><g id="change1_1"><path d="M498.8,374.2c-1.8,11-8.5,18.4-21.1,23.4c-0.9,0.5-1.6,0.8-2.3,0.9c-3.1,0.5-12,2.8-23.2,5.8 c-22.8,5.9-54,14.1-66.5,15c-3.8,0.3-7.7,0.6-11.8,1c-11.3,1-23.1,2-34.8,2h0c-23.8,0-41.4-4.5-55.2-14 c-12.8-8.9-25.8-18.9-33.3-31.9c-7.5-12.8-8.9-27.9-10.3-42.5c-0.1-1.3-0.2-2.6-0.4-3.9c-2.4-24.8-4.3-48.2-5.6-71.4 c-10.8,9.1-23.1,16.5-35,23.8l-1.3,0.8c-4.3,2.7-8.8,5.4-13.1,8.2c-1.9,1.3-3.9,2.6-5.9,3.9c-4.3,2.9-9.1,6.1-14.1,8.9 c-3.8,2.4-8.1,4.6-13.2,6.9c-0.9,0.6-1.9,1.2-2.8,1.6c-2.8,2-6.1,3.7-9.4,4.8c-3.4,1.1-6.9,1.8-10.1,1.8c-1,0-1.9,0-2.7-0.1 c-8-0.9-14.3-5.5-18.9-9.3l0,0c-4.2-2-8.7-5-13.4-9.1c-12.8-9.5-24.7-21-36.2-32.2l-5.4-5.2c-13.2-12.8-26.9-26-38.5-40.7 c-8.4-6.6-13.7-18.6-13.4-30.6l0-0.1C-0.2,179.6,0,167,0.2,154.7c0.1-4.1,0.1-8.2,0.2-12.3c0-8,0-16.6,0-27.1c0-2.3-0.1-4.8-0.2-6.9 l0-0.1c-0.2-4.8-0.4-9.7,0.2-14.5v0C0,89,1.5,83.4,4.2,79.5c1.6-2.3,3.7-3.5,5.8-4.7c1.3-0.7,2.6-1.4,3.8-2.1l1-0.5 c0.6-0.4,1.2-0.7,1.8-1c0.2-0.2,0.4-0.4,0.6-0.7c0.7-0.6,1.5-0.9,2.3-0.9l0.1,0l0.1,0l0.5-0.2c0.3-0.1,0.5-0.2,0.7-0.3 c13.7-9.4,28.8-17.4,43.3-25.1l2.9-1.6c2.3-1.2,4.5-2.4,6.7-3.6c7.1-3.8,14.2-8,21.1-12l0.1-0.1c12.7-7.4,25.8-15,39.4-21.1 c3.8-3.7,8.4-5.6,13.7-5.6c12.7,0,26.2,10.6,33.2,17C193.7,25.7,205,36,215.8,46l0.2,0.2c2.1,1.9,4.1,3.8,6.2,5.7 c10.9,10,22.2,19.6,33.8,29.5c1,0.9,2,1.8,3,2.8l0.2,0.1c0.5,0.4,1,0.7,1.5,1.1l0.5,0.3l0.4,0.3c0.5,0.3,1,0.7,1.5,1l0.2,0.1 c3.8,1.2,7.6,5.7,9.3,8.5c1.7,2.8,2.4,5.6,2.1,8.5c0.8,1.8,0.8,4.1,0.8,5.7v0.1c0,0.5,0,0.8,0,1.1l0.1,0.8c0.2,3.5,0.5,7.4,0.2,11.3 c0.5,7.8,0.1,15.8-0.2,23.6l0,0.5c-0.2,5.2-0.4,9.8-0.4,14.3c0,1.2,0,2.3,0,3.6c9.5-2.2,18.8-3.5,26.3-4.6l0.2,0 c1.8-0.3,3.5-0.5,5-0.7c19.8-3,43.2-6.4,66.4-9.1c12.9-1.5,24.3-2.7,34.9-3.6c0.7-0.1,1.4-0.1,2.1-0.2c2.9-0.3,6-0.5,9-0.5 c6.1,0,10.7,1.2,14.5,3.7c0.3,0.2,0.6,0.4,0.8,0.7l0,0c13.9,2.4,23.1,14.1,30.5,23.6c5.1,6.5,10,13.7,14.7,21.4 c0.7,1.1,1.4,2.3,2.2,3.4c3.3,5,6.6,10.2,7.4,16l0,0c4.7,11.3,5.1,23.7,5.5,35.6c0.1,2.2,0.2,4.3,0.3,6.5 c0.9,18.6,1.8,38.7,2.6,58.9c0.2,5.4,0.7,10.9,1.1,16.8C499.8,346.7,501,361.1,498.8,374.2z" fill="#090909"/></g><g id="change2_1"><path d="M246.1,103.7c1.4-0.2,2.3-0.4,3.2-0.5c0,0.4,0.2,0.9,0.3,1.3c0.9-0.4,1.7-0.9,2.6-1.3l0.1,0l0.1-0.1 c0.5-0.4,1.1-0.9,1.7-1.4c-0.3-0.5-0.6-1-1-1.7c1.1,0,2-0.2,2.7-0.2c0.1-0.1,0.1-0.3,0.2-0.4c1.8-2.6,0.9-7.8-22.7-25.9 c-1.9-1.4-3.5-2.7-4.4-3.5c-7.4-6.4-14.8-13.2-21.3-19.2l-1.9-1.8c-0.7-0.7-1.5-1.3-2.2-2c0,0,0,0-0.1-0.1 c-13.2-12-27.8-23.8-44.5-35.8l-0.1-0.1l-0.1,0c-3.8-1.5-7.3-2.2-10.8-2.2c-3.3,0-6.5,0.7-9.6,2l-0.1,0l-0.1,0 c-10.5,6.6-21.7,12.5-32.5,18.1l-0.3,0.1c-8.8,4.6-18.8,9.8-28.1,15.4c-5.7,3.4-11.4,7-17.2,10.6c-12.2,7.6-25.9,16.2-39.7,23.1 l-0.6,0.3l0,0.6c0,1.6,0.4,3.5,1.1,5.3l0.1,0.4l0.3,0.2c4.5,2.5,8.6,5.7,12.2,8.5l0.6,0.4c1.3,1,2.5,2,3.8,2.9 c7.3,5.4,14.6,11.5,22.4,18.6l0.1,0l0.1,0c15.4,10.6,29.3,23.6,40.1,37.5l0.1,0.1l0.1,0.1c2.6,2.2,5.2,4.6,8.1,7.6l0.1,0.1 c0.2,0.2,0.4,0.4,0.5,0.6l0.4,0.5l0.5,0.5c0.6,0.5,1.2,1.1,1.9,1.6c3.8,3.3,8.5,6.7,13.8,7.3c0,0,0.3,0,0.3,0l0.1,0 c3.1-0.7,6.2-2.2,9.2-3.6l1.6-0.8c1-0.5,2-0.9,3-1.3l0.1,0l0.1-0.1c10.1-7.7,21.5-14,32.8-19.9c-0.3-0.7-0.6-1.7-1.2-3.3 c2.1,0.3,3.6,0.2,4.8,0.7c0.2,0.1,0.3,0.3,0.3,0.5c2.1-1.1,4.1-2.1,6.2-3.2l1.8-0.9c3.8-1.9,7.8-4,11.5-6 c10.4-5.5,21.3-11.4,33.2-18c2.3-1.3,4.6-2.6,7-4.1l0.8-0.5c2.8-1.7,5.8-3.5,8.9-5.2C246.6,105.4,246.4,104.7,246.1,103.7z M126.2,30.5c0.6-0.4,1.2-0.7,1.9-1.1c-0.1-4.9,2.9-8.8,7-11.1c0-1.3-0.1-2.6,0.2-3.9c0.1-0.4,1.6-0.4,2.5-0.6 c0.2,1,0.4,1.9,0.6,3.1c2.5-0.8,5.3-1.1,7.9-0.8c2.6-0.1,5.3,0.5,7.7,1.7c7,2.4,12.5,8.1,10.6,15.3c-1.7,6.2-7.8,9.5-14.2,9.9 c-8.5,2.4-19.2-1.3-21.7-10.3c-0.6,0-1.2,0-1.8-0.1C126.5,32.7,126,30.6,126.2,30.5z M143.5,94c-0.2,0.5-1.3,0.5-2.1,0.8 c-0.2-0.9-0.7-1.9-0.6-2.7c0.1-0.4,1.2-0.7,2.5-1.4C143.4,92.2,143.8,93.2,143.5,94z M122.7,100.4c-1.3,0-2.7,0-4-0.1 c-0.3,0-0.4-0.7-1-1.6c1.9,0,3.3,0,4.6,0.1C122.5,98.8,122.6,99.8,122.7,100.4z M66.5,95.3c-9.3,2.6-23.3-0.1-26.4-10.6 c-1-3.4-0.2-7.2,1.8-10.3c0.8-1.9,2-3.8,3.8-5.5c8.1-7.8,24.1-5.1,30,4.2C81.2,82,76.3,92.5,66.5,95.3z M77.1,94.9 c-0.2-0.9,0.9-2.1,1.4-3.1c-0.2,2.3-0.4,4.5-0.5,4.8C78.6,97.4,77.4,96.2,77.1,94.9z M95.3,72.4c-11.1-2.2-19.1-14-11.6-24.2 c2.2-3,5.6-5.1,9.4-6.3c0.1,0,0.1,0,0.2-0.1c8-2.4,17.7-0.9,22.8,4.9c5.6,6.4,4.2,16.3-2.1,20.2c-0.6,0.6-1.3,1.1-2.1,1.5 c-0.1,0.1-0.3,0.1-0.4,0.2C106.8,72.2,101,73.5,95.3,72.4z M150.9,146.5c-2.4,10.4-13.9,13.4-23.2,13.3c-9.6-0.1-17.8-5.9-17.2-16.4 c0.6-10,12.6-12,20.5-12.4c0.8,0,1.5,0.3,2,0.7c0.9-0.1,1.9-0.1,2.7-0.1C144.2,132.1,153.3,136.3,150.9,146.5z M149.9,120.3 c-0.3,0-0.6-1.3-1.2-2.7c1.7,0,2.8-0.1,3.7,0.2c0.4,0.1,0.4,1.3,0.6,2C152,120,150.9,120.4,149.9,120.3z M157.1,59.6 c1.5,2.1,2.9,4.1,4.4,6.2c-1,0.2-2.1,0.3-3.8,0.6c-0.5-2.5-1-4.6-1.5-6.7C156.6,59.7,157.1,59.5,157.1,59.6z M156.6,97.6 c0-0.3,1.9-0.9,2.1-0.6c1.1,1.3,2,2.8,3,4.2c-1.4,0-2.7,0.1-4.8,0.1C156.8,99.9,156.4,98.7,156.6,97.6z M168.2,144.8 c-0.6-0.4-0.9-1.4-1.8-2.8c1.7,0.1,2.7-0.1,3.3,0.3c0.5,0.4,0.5,1.5,0.7,2.3C169.7,144.7,168.8,145.1,168.2,144.8z M188.5,125.5 c-8.1,5.4-20.6,5.7-28-1.2c-8.7-8.1-1.6-19.3,8.4-21c0,0,0,0,0,0c6-3.1,13.9-3.3,20-0.7C200,107.3,197.1,119.8,188.5,125.5z M224.5,103.4c-0.5,0.1-1,0.2-1.6,0.2c-5.6,2.2-12.3,2.5-17.5-0.6c-6.3-3.7-8.5-11.6-5.8-18.2c1.2-2.8,3.1-4.9,5.6-6.4 c-0.5,0.1-1,0.1-1.5,0.1c-0.3,0-0.5-1.1-1.1-2.5c1.7,0.1,2.8,0,3.7,0.3c0.2,0.1,0.3,0.7,0.4,1.3c6-2.8,14.2-2.2,20.2,1.1 c0.9,0.4,1.8,0.8,2.6,1.2c2.1,1.3,3.4,3.3,4.1,5.4c0.3,0.6,0.6,1.1,0.8,1.7C236.9,94.3,231.5,101.7,224.5,103.4z M447.8,302.7 c-1.2-10.4-2.8-23.2-2.8-29.9v-0.1l0-0.1c-3.7-26.7-7.1-56-7.2-60.3c-0.3-5.2-0.7-9.7-1.2-14c-0.3-2.7-0.6-5.3-1-8 c-0.5-3.4-0.9-6.9-1.2-10.3c-0.1-0.8-0.2-1.7-0.3-2.8c-0.4-4.1-0.9-10.3-3-14.3c-2-3.8-6.2-5-8.4-5.1l-0.1,0l-0.1,0 c-4.8,0.3-9.7,0.5-14.4,0.8c-8.8,0.4-17.9,0.9-26.8,1.8c-13.9,1.5-28.1,3.4-41.7,5.2c-3.9,0.5-7.6,1-11.4,1.5l-3.1,0.4 c-16.6,2.1-33.8,4.3-50.4,8.1c-0.2,0-0.4,0.1-0.7,0.2c-1.2,0.3-2.3,0.5-3.5,0.8c-0.9,0.2-1.7,0.4-2.6,0.7c-0.5,0.1-0.9,0.3-1.4,0.4 c-16.3,4.7-30.2,12.8-27.4,31.5c0.1,0.7,0,1.3-0.3,1.8l-0.2,0.3l0,0.3c0.1,1,0.3,2,0.4,3c0.9,6.3,1.8,12.6,2.7,18.8 c0.4,2.7,0.7,5.5,1.1,8.2c0.1,0.5,0.1,1,0.2,1.6c0.1,1.1,0.3,2.2,0.4,3.3c0.2,1.3,0.3,2.6,0.5,3.9c2.7,21.5,4.9,42.2,6.5,62.8 c0.3,3.7,0.5,7.6,0.7,11.4c0.7,12.1,1.4,24.5,4.8,35.9l0.2,0.5l0.6,0.1c12,3,23.9,5.8,36.8,5.8c0.6,0,1.3,0,1.9,0 c12.5-0.3,85.2-8.2,125.2-19.3c-0.6-1.4-1.1-2.4-1.5-3.5c2.4,0,4.9-0.6,7,0.1c0.5,0.2,1,0.7,1.3,1.4c10-3.2,17-6.6,19-10.1l0.1-0.1 l0-0.1c1.3-4.9,2.5-10.4,2.5-17.1C449.4,315.9,448.7,309.8,447.8,302.7z M406.1,161.3c0.9-0.4,2-0.5,3-0.7c0.1,0.8,0.6,1.9,0.2,2.2 c-0.6,0.6-1.6,0.7-3,1.3C406.2,162.7,405.9,161.4,406.1,161.3z M310.7,205.6c0.5,1.4,0.8,2.4,1.1,3.4c-1.7-0.4-3.5-0.6-5.1-1.1 c-0.3-0.1-0.3-1.2-0.5-1.8C307.6,205.9,309,205.8,310.7,205.6z M272.3,240.9c-2.9-1.7-5-4.2-6.4-7.2c-0.6-1.2-1-2.5-1.3-3.8 c-0.3-1.4-0.5-2.9-0.5-4.4c0-1.1,0.1-2.3,0.3-3.4c0.1-0.7,0.3-1.4,0.5-2.1c0.4-1.2,0.9-2.4,1.6-3.6c0.1-0.4,0.3-0.7,0.4-1 c0.4-0.9,0.8-1.8,1.3-2.6c0.6-1.1,1.4-2.1,2.2-3.1c1-1.1,2.2-2.2,3.6-3c1.3-0.8,2.6-1.4,4.2-1.8c8.7-2.4,16.9,2.8,20.5,10.5 c3.5,4.1,4.8,10.4,3.4,15.6c-2.6,9.7-12.3,16.1-22.2,13.7c-2.8-0.7-5.2-1.9-7.2-3.5C272.6,241.1,272.5,241,272.3,240.9z M315.5,334.1c-0.7,1.2-1.5,2.3-2.4,3.4c-1.8,2.9-4.3,5.5-7.3,7.2c-9.5,5.6-21.2,1.9-27-7.1c-3.6-5.7-4.8-13.3-2.8-19.8 c2.7-8.5,9.9-13.5,18.6-14.4c7.1-0.7,14.7,2.4,19.1,8C318.8,318,319.5,326.8,315.5,334.1z M320.5,220.9c-1.2,0.9-2.5,1.7-3.8,2.5 c-0.2-1-0.3-1.9-0.6-3.6c1.7-0.3,2.9-0.5,4.2-0.6C320.3,219.2,320.8,220.7,320.5,220.9z M358.8,271.8c-2.6,9.7-12.3,16.1-22.2,13.7 c-2.8-0.7-5.2-1.9-7.2-3.5c-0.1-0.1-0.3-0.1-0.4-0.2c-7-4.2-9.6-13.3-7.3-20.8c0.4-1.2,0.9-2.4,1.6-3.6c1.9-5.4,5.7-9.9,11.6-11.6 c8.7-2.4,16.9,2.8,20.5,10.5C358.9,260.3,360.2,266.6,358.8,271.8z M372.6,199.7c0.4-1.2,0.9-2.4,1.6-3.6c1.9-5.4,5.7-9.9,11.6-11.6 c8.7-2.4,16.9,2.8,20.5,10.5c3.5,4.1,4.8,10.4,3.4,15.6c-2.6,9.7-12.3,16.1-22.2,13.7c-2.8-0.7-5.2-1.9-7.2-3.5 c-0.1-0.1-0.3-0.1-0.4-0.2C372.8,216.3,370.2,207.2,372.6,199.7z M385.6,321.6c-6.3-6.4-7.5-15.6-4.9-23.9 c3-9.8,11.6-15.5,21.8-13.6c3.3,0.6,6.6,2.3,9.4,4.5c4.7,2.4,8.5,6.5,10,12.3c1.2,4.5,0.8,9.4-0.8,13.8h0c-0.1,0.2-0.1,0.4-0.2,0.5 c-2,5.1-5.8,9.5-10.9,11.7C401.7,330.3,391.9,328,385.6,321.6z M415.8,335.9c-0.5-0.1-0.8-1.2-1.7-2.8c3,0.5,5,0.7,6.9,1.2 c0.4,0.1,0.5,1.3,0.7,2C419.7,336.2,417.8,336.2,415.8,335.9z M423.2,329.1c-0.1,0.4-1.3,0.5-2.4,1c-0.2-1.3-0.7-2.4-0.4-2.9 c0.4-0.5,1.5-0.6,2.3-0.8C422.9,327.3,423.3,328.2,423.2,329.1z" fill="#fff"/></g><g id="change3_1"><path d="M122.7,226.9c-0.4-11.4-0.8-23.2,0.3-34.6l0-0.3l-0.2-0.3c-4.4-7.3-9.3-13.7-13.6-19.1l-0.1-0.1l-0.1-0.1 c-6.5-5.2-11.6-11.6-14.7-16.1l-0.1-0.1l-0.1-0.1c-12.9-10-25.4-21.7-37.1-34.9l-0.1-0.1l-0.1-0.1c-8-6.3-16.1-12.2-24-17.6 c-2.5-1.7-5.2-3.2-7.8-4.7L25,98.6c-2.8-1.6-5.6-3.2-8.3-5l-0.3-0.2l-0.4,0c-3.2,0.3-5.4,1.1-7.1,2.4l-0.4,0.3l0,0.5 c0.3,3.9,0.1,8.1-0.1,11.7c-0.1,2.1-0.2,4.6-0.2,6.9c0,9.3,0,18.2,0,27.1c0,2.9,0.1,5.8,0.1,8.7l0.1,3.6c0.2,11.4,0.4,23.1-0.4,34.5 l0,0.1l0,0.1c0.5,6.3,1.6,11.3,3.5,15.8c1.5,3.6,3.7,6.6,5.5,9l0,0.1l0.1,0.1c8.1,7.7,16,16.1,23,23.5l0.6,0.6 c6,6.4,12.2,12.9,18.4,19c6.3,6.2,13.2,12.4,19.3,17.9c8.2,7.4,16.6,14.9,24.3,22.9l0.1,0.1l0.4,0.3c0.7,0.5,1.3,0.9,1.9,1.3 c0.5,0.3,1.1,0.7,1.7,1.2c2.7,1.9,5.5,3.7,7.4,3.9c0.3,0,0.6,0,0.8,0c3.6,0,4.8-2.6,6.3-6.5c0.3-0.7,0.6-1.5,0.9-2.3 c0,0,0-0.1,0.1-0.2l0.1-0.1c0,0,0.1-0.5,0.1-0.6l0-0.1l0-0.1c-0.6-5-0.5-10-0.3-14.8c0.4-13.5,0.7-23.6,0.8-32.7 c0.1-6.5-0.1-13.3-0.4-19.8L122.7,226.9z M33.3,139.5c-0.5,0.7-1.1,1.3-1.9,1.7c-3.2,1.6-7.1-0.9-9.1-3.3c-0.2-0.3-0.4-0.6-0.7-0.9 c-0.3-0.3-0.5-0.5-0.7-0.8c-4.7-5.5-11.2-21.2-2.7-26.2c10-5.9,16.9,7.5,17.4,15.6c0,0.1,0,0.1,0,0.2c0.2,1.1,0.3,2.4,0.3,3.8 C36.4,133.9,35.8,137.8,33.3,139.5z M50.6,209.1c0.2,0.7,0.4,1.3,0.7,1.9C51,210.4,50.8,209.7,50.6,209.1z M70.7,215.5 c-1.4,6.7-7.9,11.6-13.9,6.2c-1.4-1.3-3.2-4.6-4.8-8.7c0.2,0.2,0.4,0.4,0.5,0.6c1.4-1.2,2.2-1.8,3-2.5c-1.7-0.7-3.3-1.5-5-2.2 c-2.6-8.2-4-17.8-0.2-21c0.8-1.2,2-2.1,3.9-2.3c6.8-0.8,11.2,8.9,13,14.1C70.3,204.3,71.9,210.1,70.7,215.5z M113.3,278.5 c-0.4,1.6-1.2,2.9-2.3,3.9c-1.5,1.8-3.8,2.9-6.9,2.5c-5.6-0.6-8.4-6.3-10.3-11.5c-2.3-3.8-3.7-8.2-3.6-12.2c0-0.9,0.2-1.6,0.4-2.3 c0,0,0-0.1,0-0.1c0.1-0.3,0.2-0.7,0.4-0.9c1.3-5,6.3-8.3,11.4-5.2c4.5,2.7,7.6,8.3,9.4,13.6C113.5,270.4,114.2,274.8,113.3,278.5z M488,356.6l-0.1-1.8l0,0l0-0.4c0.1-1.2-0.2-6-0.4-11.3c-3,8.2-10-9.7-8.6-22.5c1.7-15.6,5.2-9.5,7.5-0.5l0-1l0-0.2 c0-0.2,0-0.4,0-0.6c0-0.3,0-0.5-0.1-0.7c-0.3-6.6-0.6-14-0.9-22c-0.5,0.2-1.2,0.4-1.9,0.6c-0.2-1.7-0.3-2.7-0.4-3.7 c0.7-0.1,1.5-0.2,2.2-0.3c-0.4-11.1-0.9-23.1-1.3-35.1c-0.1-3.9-0.1-7.8-0.1-12c0-5.7,0.1-11.6-0.3-17.3c-0.3-3.9-1.8-7.7-4.3-11.2 c-1.4-1.8-2.4-3.9-3.6-6c-0.5-1-1-2-1.6-3c-3.4-6.2-7.1-12.2-10.9-17.8c-0.9-1.3-1.8-2.7-2.7-4.1c-4.9-7.4-10.4-15.9-17.3-21.9 l-1.6-1.4l-0.1,2.1c-0.1,2.6-0.2,5.1-0.3,7.6c-0.2,4.3-0.4,8.6-0.4,12.9c0,6.6,0.2,13.3,0.3,18.9c0.4,4.4,0.6,8.8,0.8,12.8 c0.3,5,2.1,18.6,4.3,34.3c0.8,5.7,1.6,11.6,2.4,17.5l0,0.2l0.1,0.2c0,0.1,0.1,0.2,0.1,0.2c1.2,4.5,7.4,39,7.6,44.7l0,0.1l0,0.1 c0.6,1.9,1,3.8,1.4,5.7c0.5,2.5,1.1,5.1,2,7.5c1.1,3.2,2.6,6.1,4.1,9c1.4,2.7,2.8,5.5,3.8,8.3c0,0.1,0.1,0.2,0.1,0.3l0,0.3 c0,0,1.4,1.8,2,2.6c0.3,0.3,0.5,0.6,0.8,1c0.1,0,0.2,0,0.3,0.1c0.3,0.1,0.5,0.6,0.6,1.1c0.9,1.1,1.8,2.3,2.7,3.4 c1.1,1.4,2.3,2.8,3.4,4.1l0.1,0.1l0.1,0.1c0.2,0.2,0.4,0.3,0.5,0.6c0,0.1,0.1,0.2,0.1,0.2l0,0.1l0.1,0.2c2.3,2.9,5,6.4,7.3,10.3 c0.1,0.1,0.1,0.2,0.1,0.2l1.9-0.3C488.6,365.1,488.3,360.8,488,356.6z M459.5,232.1c-4.1,9.4-10.1-4.2-11-8.2 c-1.2-5.5-1.3-11.3-1.1-16.9c0.1-3.5,0.3-9.2,3.2-11.7c2.6-2.3,4.3-0.8,5.5,2c0.5,0,1.1,0.3,1.3,0.9c2.4,5.8,3,11.9,3.1,18 C460.7,221,461.5,227.6,459.5,232.1z M474.1,316.7c-1.9,24.2-15.5-0.4-13.2-17c2.4-17.6,7.3-10.2,10.5,0.2c-1.3,1.1-2.6,2.1-3.9,3.2 c1.8,0.7,3.5,1.4,5.3,2.1C473.7,309.7,474.3,314.1,474.1,316.7z M471.3,300c0.2,0.8,0.5,1.6,0.7,2.5 C471.8,301.6,471.6,300.8,471.3,300z M475.5,254c-5.6,2.4-6.8-7.1-7.3-10.5c-1.1-7.2-2.1-16.3,1.5-22.9c0.3-0.5,0.9-0.6,1.4-0.3 c0,0,0,0,0,0c6.4,2.3,7.8,11.4,8.6,17.3C480.2,242.1,481,251.6,475.5,254z M91.2,43.1c0.1-0.2,0.2-0.4,0.3-0.5 c0.5-0.2,1.1-0.4,1.6-0.6c0.1,0,0.1,0,0.2-0.1c0.5-0.2,1.1-0.3,1.7-0.5c0.2,0.4,0.3,0.7,0.2,0.9c-0.6,0.9-1.9,1.4-3,1.9 C91.9,44.2,91.1,43.3,91.2,43.1z M218.3,91.5c-1.3,0.9-2.6,1.9-4.2,2.9c-1-0.8-1.7-1.3-2.3-1.8c1.2-1,2.2-2.3,3.6-2.8 C216.1,89.5,217.3,90.9,218.3,91.5z M104,273.8c-0.6,0.5-1.2,1.3-1.8,1.3c-0.7,0-1.5-0.7-3-1.5c1.5-0.8,2.3-1.5,3-1.4 C102.9,272.3,103.4,273.2,104,273.8z M110.9,271.1c-0.9,0.9-1.8,1.9-2.8,2.6c-0.2,0.1-1.1-0.8-3.6-2.7c2-0.9,3.2-1.7,4.5-1.9 C109.5,269.1,110.2,270.4,110.9,271.1z M414.2,302.3c-0.9-1-1.8-1.7-1.8-2.3c0-0.6,1-1.3,1.6-1.9c0.6,0.7,1.5,1.3,1.8,2.1 C415.9,300.6,414.9,301.3,414.2,302.3z M418.2,307.2c-1.7,0.9-3.4,1.9-5.2,2.7c-0.4,0.2-1.3-0.6-2.9-1.5c2.8-1.2,4.6-2,6.5-2.6 C417,305.6,417.7,306.7,418.2,307.2z M390.4,292.7c0.5,1,1.1,2,2.5,4.7c-0.7,0.2-1.8,0.8-2.7,0.6c-0.5-0.1-1.4-1.4-1.3-2 C389.1,294.9,389.9,293.8,390.4,292.7z M421.1,314.6L421.1,314.6c-0.1,0.2-0.1,0.4-0.2,0.5c0,0,0,0.1-0.1,0.1 c-0.1-0.1-0.2-0.2-0.4-0.3C420.7,314.9,420.9,314.7,421.1,314.6z M468.9,293.8c-0.5,0.6-1,1.3-1.8,2.3c-0.8-0.9-1.8-1.7-1.7-2 c0.2-0.7,1.1-1.5,1.7-1.6C467.7,292.4,468.3,293.3,468.9,293.8z M462.6,308.4c-0.4,0.6-0.9,1.3-1.4,1.9c-0.2-1.1-0.3-2.3-0.4-3.4 c0.1,0,0.1,0,0.2-0.1C461.3,306.7,462.7,308.3,462.6,308.4z" fill="#1bbbf4"/></g><g id="change4_1"><path d="M266.6,117.7l0-0.2l0-0.2c-0.4-2-0.9-4.3-1.5-6.5l-0.1-0.5l-0.5-0.2c-1.3-0.5-2.9-0.7-4.8-0.7 c-1.9,0-3.5,0.2-4.3,0.4l-0.2,0l-0.2,0.1c-5.2,3.9-11,7.2-16.6,10.4l-1.2,0.7c-1,0.6-1.9,1.1-2.9,1.7c-9.7,5.7-19.9,11-29.7,16.2 l-1.8,1c-5.2,2.8-10.5,5.5-15.7,8.3l-6.9,3.7c-11.2,6-20.6,11-30.1,16l-0.1,0l-0.9,0.6c-0.5,0.3-0.9,0.6-1.4,1l-0.1,0.1 c-1.7,1.2-3.3,2.3-4.8,3.5l-0.1,0.1l-0.1,0.1c-0.7,1.1-1.5,2.1-2.3,3.1l-0.4,0.5c-2.3,3.1-4.5,6-6,9.4c-1.4,3.2-1.9,6.6-2.4,9.9 l-0.1,0.8l0,0.1c1,11.1,0.7,22.4,0.3,33.4c-0.1,4.6-0.3,8.6-0.3,12.7c-0.2,17.7-1,35.2-1.7,49.9l0,0.1l0,0.1c0.2,1.2,0.2,2.5,0,3.7 l0,0.3l0.2,0.3c1.2,2.2,3.4,4,6.1,4.8c1.6,0.5,3.2,0.5,5,0.6l0.1,0c1.5,0,2.8,0,4.2,0.3l0.2,0l0.2-0.1c2.2-0.7,4.4-1.5,6.7-2.5 c2.9-1.5,5.5-2.8,8.2-4.1c5.5-3.1,11-6.8,16.3-10.3l0.4-0.3c2.6-1.7,5.5-3.7,8.2-5.5c3.9-2.5,7.8-5.2,11.6-7.7l0.8-0.5 c9.5-6.4,19.3-13.1,29.5-18.3l0.1-0.1l0.1-0.1c2.2-1.9,4.6-3.9,6.9-5.9c-0.7-13.4-1.2-26.5-1.5-39.6c0-0.2,0-0.5,0.1-0.7l0.1-0.3 l-0.1-0.3c-2.2-7.9-1.3-14.9,2.5-20.9c5.8-9,17.9-14.7,30.9-18.4c0-2.3,0-4.5,0-6.7c0-4.6-0.2-9.3-0.4-14.3 C265.9,137.4,265.4,127.2,266.6,117.7z M143,204.2c-3.8-3.9-1.6-9.7,0.9-13.7c4.1-6.5,16.4-15.6,23.5-7.8c3.6,3.9,2.1,10.1-0.6,14.1 c-1.3,1.9-3,3.7-4.9,5.3c-1.1,1-2.3,2-3.5,2.7C153.9,207.3,147,208.3,143,204.2z M169.6,271.8c-1.1,6-4.6,12.2-10.3,14.2 c-2.3,0.8-4.5,0.7-6.3-0.1c-2.4-0.1-4.6-1-6.1-3.3c-2.4-3.6-1.5-8,0.3-11.6c1.8-3.7,5.1-7.4,9-9.7c2.1-1.6,4.5-2.6,6.8-2.5 c0.4,0,0.7,0.1,1,0.3c0.1,0,0.2,0,0.3,0c0.2,0,0.3,0,0.5,0.1c0,0,0.1,0,0.1,0c2.9,0.5,5.4,2.4,6,5.6 C171.4,267.2,170.7,269.6,169.6,271.8z M211.7,214.8c-3.4,3.2-8.2,5.7-13,5.6c-5.6-0.1-8.7-4.8-7.5-10c0.7-3.2,2.4-6.5,4.7-9.3 c2.6-5,7.1-9.2,11.8-9.4c5.4-0.2,9.5,4.4,9.8,9.6C217.7,206.3,215.2,211.4,211.7,214.8z M219.4,221.2c-1.3-0.5-1.9-2.9-4-6.2 c4.1,1.2,6.3,1.7,8.3,2.6c0.8,0.4,1,1.9,1.5,2.9C223.3,220.8,221.1,221.8,219.4,221.2z M258.5,135.9c-1.8,7-8.9,13.2-15.8,15.1 c-3.9,1-8.6,0.8-11-2.8c-2.1-3-1.3-7.3,0.3-10.3c1.3-2.3,3-4.4,5.2-6.1c2.7-3.3,6.2-6.1,9.4-7.6C254.9,120.4,260.5,128,258.5,135.9z M485,377.2c-1.6-1.4-2.9-3.3-4-4.9c-1.3-2-2.5-4.1-3.8-6.8l-0.1-0.1l-0.1-0.1c-1.3-1.4-2.4-2.6-3.5-3.9l-0.1-0.1l-0.1-0.1 c-0.5-0.3-0.9-0.6-1.4-1c1.4,3.2,2.7,6.1,4,8.9c-0.7,0-1.7,0.3-2,0c-2.8-3.5-5.5-7.1-8.3-10.7c1.1-0.2,2.2-0.3,3.3-0.5 c-1.1-0.9-2.1-1.8-3.2-2.8l-0.2-0.2l-0.3,0c-0.4-0.1-0.8-0.2-1.1-0.4c-1.5-1.1-2.8-2.6-4-4.6l-0.1-0.2l-0.2-0.1 c-2.5-1.9-5.1-2.7-8.4-2.7c-2.4,0-5.1,0.5-7.3,1c-0.1,0-0.2,0-0.4,0c-0.1,0-0.2,0-0.3,0l-0.4-0.1l-0.3,0.2c-7.3,4.3-17.1,5.8-25,7.1 c-17.6,2.8-33.5,5.2-49.5,6.9c-2.8,0.3-5.4,0.7-7.8,1.2c-12.3,2.4-31.9,5.2-40.3,6.4l-2.4,0.3l-0.1,0c-10.9,3.8-23,7.1-39.2,10.8 c-1.6,0.5-3.2,1.2-4.1,2.1c-1.1,1.2-1.2,2.6-0.3,4.3l0.1,0.1l0.1,0.1c5.5,5,11.4,9.3,16.5,12.9c14.5,10.2,30.8,11.6,44.8,11.6 c1.2,0,2.5,0,3.7,0c15.8-0.2,32.9-1.1,52.2-2.7c7.4-0.6,64-10.5,79-17.9c0.8-0.4,1.5-0.7,2.1-1l0.1,0l1.6-1.2 c4.1-3.1,8.3-6.3,10.8-10.3l0.4-0.7L485,377.2z M291,389.4c-2.3-0.5-8.1-1.9-8.6-4.8c-0.4-2.2,3.4-3.1,4.9-3.5c4-1,8.2-1.3,12.3-1.6 c2.4-0.2,4.8-0.3,7.3-0.3c2.3,0,21.8-1,28.1,2.4c2,1.1-0.8,2.9-1.8,3.3c-1.9,0.7-3.9,1.1-5.9,1.6c-4.7,1.2-9.5,2-14.3,2.7 C305.8,390.2,298.2,391,291,389.4z M310,398.9c-1.9-0.4-6.7-1.6-7.1-4c-0.3-1.8,2.8-2.6,4.1-2.9c3.3-0.8,6.8-1.1,10.2-1.4 c2-0.1,4-0.2,6-0.2c1.9,0,18.1-0.8,23.4,2c1.7,0.9-0.7,2.4-1.5,2.7c-1.6,0.6-3.3,0.9-4.9,1.3c-3.9,1-7.9,1.7-11.9,2.2 C322.4,399.5,316,400.2,310,398.9z M360,405.2c-1.6,0.5-3.2,0.9-4.8,1.3c-3.9,1-7.8,1.7-11.8,2.2c-6,0.8-12.2,1.6-18.2,0.2 c-1.9-0.4-6.7-1.6-7.1-3.9c-0.3-1.8,2.8-2.6,4-2.9c3.3-0.8,6.8-1.1,10.1-1.3c2-0.1,4-0.2,6-0.2c1.9,0,18-0.8,23.2,1.9 C363.1,403.4,360.8,404.9,360,405.2z M458.3,358.2c0.4,0.1,0.7,2.2,0.6,2.2c-1.6,0.7-3.2,1.2-5.2,1.9c-1-2.2-1.8-3.8-2.5-5.3 C453.6,357.4,456,357.6,458.3,358.2z M388.2,375.1c-2.3-0.5-8.1-1.9-8.6-4.8c-0.4-2.2,3.4-3.1,4.9-3.5c4-1,8.2-1.3,12.3-1.6 c2.4-0.2,4.8-0.3,7.3-0.3c2.3,0,21.8-1,28.1,2.4c2,1.1-0.8,2.9-1.8,3.3c-1.9,0.7-3.9,1.1-5.9,1.6c-4.7,1.2-9.5,2-14.3,2.7 C403,375.9,395.4,376.8,388.2,375.1z M407.2,384.6c-1.9-0.4-6.7-1.6-7.1-4c-0.3-1.8,2.8-2.6,4.1-2.9c3.3-0.8,6.8-1.1,10.2-1.4 c2-0.1,4-0.2,6-0.2c1.9,0,18.1-0.8,23.4,2c1.7,0.9-0.7,2.4-1.5,2.7c-1.6,0.6-3.3,0.9-4.9,1.3c-3.9,1-7.9,1.7-11.9,2.2 C419.6,385.3,413.2,386,407.2,384.6z M457.2,391c-1.6,0.5-3.2,0.9-4.8,1.3c-3.9,1-7.8,1.7-11.8,2.2c-6,0.8-12.2,1.6-18.2,0.2 c-1.9-0.4-6.7-1.6-7.1-3.9c-0.3-1.8,2.8-2.6,4-2.9c3.3-0.8,6.8-1.1,10.1-1.3c2-0.1,4-0.2,6-0.2c1.9,0,18-0.8,23.2,1.9 C460.4,389.2,458,390.7,457.2,391z M151,198.9c-0.3,0.9-1,1.6-1.5,2.5c-0.6-0.5-1.1-1-2.1-1.8c1.1-0.9,1.8-1.5,2.5-2.1 C150.3,197.9,151.1,198.6,151,198.9z M155,194.3c-0.9,0-1.8-0.7-3.6-1.6c1.7-1.1,2.5-2,3.4-2.1c0.6,0,1.6,1.1,1.7,1.9 C156.6,193.1,155.5,194.3,155,194.3z" fill="#7a49a9"/></g></svg>