<?xml version="1.0" encoding="UTF-8"?><svg xmlns="http://www.w3.org/2000/svg" xmlns:xlink="http://www.w3.org/1999/xlink" height="650.2" preserveAspectRatio="xMidYMid meet" version="1.0" viewBox="0.0 0.0 591.3 650.2" width="591.3" zoomAndPan="magnify"><g id="change1_1"><path d="M572.069,248.412h-52.826c-2.866,0-5.576,0.658-8.021,1.807c-6.384-33.869-20.546-64.987-40.569-91.429h20.085 c9.572,0,17.332-7.76,17.332-17.332V96.31h7.761v-2.269c0-10.864-8.615-19.67-19.243-19.67h-52.826 c-10.628,0-19.243,8.807-19.243,19.67v2.269h7.761v23.147c-28.556-22.76-62.916-38.537-100.506-44.765 c1.126-2.298,1.776-4.873,1.776-7.605V21.939h7.761V19.67c0-10.864-8.615-19.67-19.243-19.67h-52.826C258.615,0,250,8.807,250,19.67 v2.269h7.761v45.148c0,2.732,0.65,5.306,1.776,7.605c-37.522,6.216-71.826,21.947-100.351,44.641v-22.77h7.761v-2.269 c0-10.864-8.615-19.67-19.243-19.67H94.878c-10.628,0-19.243,8.807-19.243,19.67v2.269h7.761v45.148 c0,9.572,7.76,17.332,17.332,17.332h19.737c-19.922,26.387-34.012,57.416-40.376,91.177c-2.444-1.149-5.154-1.807-8.021-1.807 H19.243C8.615,248.412,0,257.219,0,268.082v2.269h7.761v45.148c0,9.572,7.76,17.332,17.332,17.332h41.126 c5.176,0,9.809-2.281,12.985-5.879c6.594,40.111,24.063,76.554,49.286,106.206H81.936c-10.628,0-19.243,8.807-19.243,19.67v2.269 h7.761v45.148c0,9.572,7.76,17.332,17.332,17.332h41.126c9.572,0,17.332-7.76,17.332-17.332v-45.148h3.711 c5.221,4.641,10.663,9.037,16.312,13.169l-42.091,135.09l0.808,0.348h-30.37c-15.993,0-28.958,12.965-28.958,28.958v17.494h460 v-17.494c0-15.993-12.965-28.958-28.958-28.958H466.53l0.808-0.348l-42.128-135.21c5.692-4.172,11.175-8.612,16.432-13.301h3.581 v45.148c0,9.572,7.76,17.332,17.332,17.332h41.126c9.572,0,17.332-7.76,17.332-17.332v-45.148h7.761v-2.269 c0-10.864-8.615-19.67-19.243-19.67h-46.494c25.107-29.606,42.496-65.955,49.072-105.953c3.176,3.598,7.809,5.879,12.985,5.879 h41.126c9.572,0,17.332-7.76,17.332-17.332v-45.148h7.761v-2.269C591.312,257.219,582.697,248.412,572.069,248.412z M300.656,84.419 h12.761c45.316,3.861,86.521,22.347,118.864,50.714v6.326c0,1.798,0.274,3.532,0.783,5.163l-32.347,32.347 c-26.373-24.726-61.439-40.278-100.061-41.519L300.656,84.419L300.656,84.419z M369.382,286.1 c-0.76-16.825-7.182-32.193-17.397-44.258l47.363-47.363c22.569,24.205,36.785,56.288,38.017,91.62h-67.983V286.1z M437.364,296.1 c-1.22,35.017-15.193,66.845-37.414,90.973L371.605,296.1H437.364z M300.656,149.392c35.332,1.231,67.415,15.447,91.62,38.017 l-47.246,47.246c-11.928-10.755-27.372-17.667-44.374-18.811V149.392z M300.656,363.09c16.185-1.089,30.953-7.411,42.625-17.294 l11.729,11.729l16.599,53.275c-20.653,13.152-44.922,21.102-70.952,22.009V363.09H300.656z M300.656,444.751 c27.242-0.875,52.719-8.863,74.621-22.176l16.329,52.407c-27.324,14.316-58.207,22.727-90.95,23.505V444.751z M159.186,141.711 v-6.715c32.319-28.29,73.465-46.722,118.709-50.577h12.761v53.03c-38.622,1.241-73.687,16.794-100.061,41.519l-32.172-32.172 C158.917,145.188,159.186,143.481,159.186,141.711z M219.909,296.1l-28.396,91.135c-22.308-24.148-36.342-56.039-37.565-91.135 H219.909z M153.948,286.1c1.231-35.332,15.447-67.415,38.017-91.62l47.363,47.363c-10.216,12.064-16.638,27.432-17.398,44.257 H153.948z M216.205,422.676c21.864,13.252,47.279,21.203,74.451,22.075v53.735c-32.674-0.777-63.495-9.153-90.777-23.413 L216.205,422.676z M219.873,410.905l16.724-53.674l11.435-11.435c11.672,9.884,26.439,16.206,42.624,17.295v69.718 C264.697,431.903,240.49,423.992,219.873,410.905z M246.282,234.655l-47.246-47.246c24.205-22.569,56.288-36.785,91.62-38.017 v66.451C273.654,216.988,258.21,223.9,246.282,234.655z M89.241,270.351h2.071v-2.269c0-2.205-0.37-4.317-1.025-6.296 c5.496-38.684,21.689-73.97,45.499-102.744h6.067c4.109,0,7.877-1.437,10.848-3.826l30.823,30.823 c-24.726,26.374-40.278,61.439-41.519,100.061H88.27C88.396,280.799,88.723,275.548,89.241,270.351z M145.543,434.143 C111.106,398.02,89.54,349.528,88.27,296.1h53.735c1.241,38.622,16.794,73.687,41.519,100.061L145.543,434.143z M152.614,441.214 l32.076-32.076l-14.63,46.952C163.975,451.447,158.145,446.487,152.614,441.214z M431.714,603.704H159.801l36.45-116.986 c17.975,9.153,37.383,15.889,57.794,19.808c-2.526,3.328-4.045,7.496-4.045,12.035v2.269h7.761v45.148 c0,9.572,7.76,17.332,17.332,17.332h41.126c9.572,0,17.332-7.76,17.332-17.332V520.83h7.761v-2.269 c0-4.539-1.519-8.706-4.045-12.034c20.477-3.932,39.945-10.698,57.969-19.895L431.714,603.704z M421.415,455.965l-14.499-46.534 l31.782,31.782C433.217,446.44,427.441,451.358,421.415,455.965z M445.77,434.143l-37.982-37.982 c24.726-26.373,40.278-61.439,41.519-100.061h53.735C501.772,349.528,480.206,398.02,445.77,434.143z M449.307,286.1 c-1.241-38.622-16.793-73.687-41.519-100.061l31.033-31.033c2.962,2.363,6.708,3.784,10.792,3.784h5.7 c23.925,28.82,40.201,64.198,45.713,102.996c-0.654,1.979-1.025,4.091-1.025,6.296v2.269h2.071 c0.518,5.196,0.845,10.448,0.971,15.749H449.307z" fill="#d66364"/></g><g id="change2_1"><path d="M349.508,339.869l5.501,17.655l-11.729-11.729C345.47,343.942,347.548,341.962,349.508,339.869z M241.956,340.029l-5.36,17.202l11.435-11.435C245.898,343.989,243.872,342.063,241.956,340.029z M145.543,434.143l-1.473,1.473 c2.935,1.662,5.385,4.092,7.126,7.016l1.419-1.419l32.076-32.076l6.401-20.543l-7.565,7.565L145.543,434.143z M503.042,286.1 h-53.735h-11.943h-67.982c0.05,1.117,0.085,2.238,0.085,3.367c0,0.01-0.001,0.02-0.001,0.031l0.071-0.031l2.067,6.633h65.759h11.943 h53.735h4.719v-10H503.042z M153.948,286.1h-11.943H88.27h-4.719v10h4.719h53.735h11.943h65.961l1.945-6.243 c-0.001-0.131-0.01-0.259-0.01-0.39c0-1.129,0.035-2.25,0.085-3.367L153.948,286.1L153.948,286.1z M351.985,241.843l47.363-47.363 l8.441-8.441l31.033-31.033c-2.677-2.135-4.714-5.038-5.757-8.385l-32.347,32.347l-8.441,8.441l-47.246,47.246 C347.509,236.889,349.827,239.295,351.985,241.843z M191.965,194.48l47.363,47.363c2.157-2.548,4.476-4.953,6.954-7.188 l-47.246-47.246l-8.44-8.44l-32.172-32.172c-1.029,3.356-3.052,6.273-5.722,8.42l30.823,30.823L191.965,194.48z M407.788,396.161 l-7.272-7.272l6.401,20.543l31.782,31.782l1.421,1.421c1.698-2.952,4.12-5.41,7.026-7.116l-1.377-1.377L407.788,396.161z M290.656,137.449v11.943v66.451c1.654-0.111,3.318-0.188,5-0.188s3.346,0.077,5,0.188v-66.451v-11.943v-53.03h-10V137.449z M290.656,363.09v69.718v11.943v53.735v0.404h10v-0.404v-53.735v-11.943V363.09c-1.654,0.111-3.318,0.188-5,0.188 C293.974,363.279,292.31,363.202,290.656,363.09z" fill="#a6e1d8"/></g><g id="change3_1"><path d="M267.424,21.939h56.463v38.11h-56.463V21.939z M267.424,558.939h56.463v-38.11h-56.463V558.939z M17.425,308.461h56.463v-38.11H17.425V308.461z M517.424,270.351v38.11h56.463v-38.11H517.424z M498.407,96.31h-56.463v38.11 h56.463V96.31z M454.886,492.954h56.463v-38.11h-56.463V492.954z M93.059,134.672h56.463v-38.11H93.059V134.672z M80.117,493.207 h56.463v-38.11H80.117V493.207z" fill="#2a60a0"/></g><g id="change4_1"><path d="M341.312,19.67v2.269h-7.761h-9.663h-56.463h-9.663H250V19.67C250,8.807,258.615,0,269.243,0h52.826 C332.697,0,341.312,8.807,341.312,19.67z M322.069,498.891h-21.413h-10h-21.413c-6.188,0-11.678,2.997-15.198,7.636 c-2.526,3.328-4.045,7.496-4.045,12.035v2.269h7.761h9.663h56.463h9.663h7.761v-2.269c0-4.539-1.519-8.706-4.045-12.034 C333.747,501.888,328.257,498.891,322.069,498.891z M83.551,270.351h5.69h2.071v-2.269c0-2.205-0.37-4.317-1.025-6.296 c-1.701-5.142-5.419-9.321-10.197-11.568c-2.444-1.149-5.154-1.807-8.021-1.807H19.243C8.615,248.412,0,257.219,0,268.082v2.269 h7.761h9.663h56.463H83.551z M572.069,248.412h-52.826c-2.866,0-5.576,0.658-8.021,1.807c-4.779,2.246-8.497,6.425-10.197,11.567 c-0.654,1.979-1.025,4.091-1.025,6.296v2.269h2.071h5.69h9.663h56.463h9.663h7.761v-2.269 C591.312,257.219,582.697,248.412,572.069,248.412z M498.407,96.31h9.663h7.761v-2.269c0-10.864-8.615-19.67-19.243-19.67h-52.826 c-10.628,0-19.243,8.807-19.243,19.67v2.269h7.761h9.663H498.407z M509.531,432.906h-46.494h-6.332c-3.483,0-6.74,0.96-9.558,2.614 c-2.907,1.706-5.329,4.163-7.026,7.116c-1.679,2.92-2.658,6.31-2.658,9.941v2.269h4.181h3.581h9.663h56.463h9.663h7.761v-2.269 C528.774,441.712,520.158,432.906,509.531,432.906z M147.704,74.624H94.878c-10.628,0-19.243,8.807-19.243,19.67v2.269h7.761h9.663 h56.463h9.663h7.761v-2.269C166.947,83.43,158.332,74.624,147.704,74.624z M144.069,435.616c-2.759-1.562-5.93-2.458-9.307-2.458 h-6.273H81.936c-10.628,0-19.243,8.807-19.243,19.67v2.269h7.761h9.663h56.463h9.663h3.711h4.051v-2.269 c0-3.738-1.039-7.22-2.81-10.196C149.455,439.708,147.005,437.278,144.069,435.616z" fill="#ffecd7"/></g><g id="change5_1"><path d="M437.461,454.845h4.181c-5.256,4.69-10.739,9.129-16.432,13.301l-3.795-12.181 c6.026-4.607,11.801-9.526,17.283-14.752l1.421,1.421c-1.679,2.92-2.658,6.31-2.658,9.941L437.461,454.845L437.461,454.845z M275.093,84.419c-6.84,0-12.737-3.972-15.556-9.727c-37.522,6.216-71.826,21.947-100.351,44.641v15.663 c32.319-28.29,73.465-46.722,118.709-50.577C277.895,84.419,275.093,84.419,275.093,84.419z M511.222,250.219 c-6.384-33.869-20.546-64.987-40.569-91.429h-15.341c23.925,28.82,40.201,64.198,45.713,102.996 C502.726,256.644,506.444,252.465,511.222,250.219z M507.761,315.499V296.1h-4.719c-1.27,53.428-22.836,101.92-57.273,138.042 l1.377,1.377c2.818-1.654,6.076-2.614,9.558-2.614h6.332c25.107-29.606,42.496-65.955,49.072-105.953 C509.411,323.897,507.761,319.895,507.761,315.499z M503.042,286.1h4.719v-15.749h-5.69 C502.59,275.548,502.916,280.799,503.042,286.1z M432.281,119.457c-28.556-22.76-62.916-38.537-100.506-44.765 c-2.819,5.755-8.716,9.727-15.556,9.727h-2.802c45.316,3.861,86.521,22.347,118.864,50.714V119.457z M90.287,261.787 c5.496-38.684,21.689-73.97,45.499-102.744h-15.321c-19.922,26.387-34.012,57.416-40.376,91.177 C84.869,252.465,88.587,256.644,90.287,261.787z M83.551,296.1v19.399c0,4.396-1.65,8.398-4.347,11.453 c6.594,40.111,24.063,76.554,49.286,106.206h6.273c3.378,0,6.548,0.895,9.307,2.458l1.473-1.473 C111.106,398.02,89.54,349.528,88.27,296.1H83.551z M196.251,486.718c17.975,9.153,37.383,15.889,57.794,19.808 c3.52-4.638,9.011-7.636,15.198-7.636h21.413v-0.404c-32.674-0.777-63.495-9.153-90.777-23.413L196.251,486.718z M300.656,498.486 v0.404h21.413c6.188,0,11.678,2.997,15.198,7.636c20.477-3.932,39.945-10.698,57.969-19.895l-3.63-11.65 C364.282,489.297,333.399,497.708,300.656,498.486z M83.551,286.1h4.719c0.126-5.301,0.453-10.553,0.971-15.749h-5.69V286.1z M151.195,442.632c1.771,2.976,2.81,6.458,2.81,10.196v2.269h-4.051c5.221,4.641,10.663,9.037,16.312,13.169l3.794-12.176 c-6.085-4.643-11.915-9.604-17.446-14.877L151.195,442.632z M142.005,286.1h11.943c1.231-35.332,15.447-67.415,38.017-91.62 l-8.44-8.44C158.799,212.413,143.246,247.478,142.005,286.1z M437.364,296.1c-1.22,35.017-15.193,66.845-37.414,90.973l0.566,1.816 l7.272,7.272c24.726-26.373,40.278-61.439,41.519-100.061H437.364z M300.656,444.751c27.242-0.875,52.719-8.863,74.621-22.176 l-3.669-11.776c-20.653,13.152-44.922,21.102-70.952,22.009V444.751z M199.036,187.409c24.205-22.569,56.288-36.785,91.62-38.017 v-11.943c-38.622,1.241-73.687,16.794-100.061,41.519L199.036,187.409z M142.005,296.1c1.241,38.622,16.794,73.687,41.519,100.061 l7.565-7.565l0.424-1.36c-22.308-24.148-36.342-56.039-37.565-91.135h-11.943V296.1z M216.205,422.676 c21.864,13.252,47.279,21.203,74.451,22.075v-11.943c-25.959-0.905-50.166-8.815-70.783-21.903L216.205,422.676z M400.717,178.968 c-26.373-24.726-61.439-40.278-100.061-41.519v11.943c35.332,1.231,67.415,15.447,91.62,38.017L400.717,178.968z M449.307,286.1 c-1.241-38.622-16.793-73.687-41.519-100.061l-8.441,8.441c22.569,24.205,36.785,56.288,38.017,91.62H449.307z M329.468,289.467 c0-18.644-15.168-33.812-33.812-33.812s-33.812,15.168-33.812,33.812s15.168,33.812,33.812,33.812S329.468,308.111,329.468,289.467z" fill="#f9e698"/></g></svg>