<?xml version="1.0" encoding="UTF-8" standalone="no"?><svg xmlns="http://www.w3.org/2000/svg" xmlns:xlink="http://www.w3.org/1999/xlink" fill="#000000" height="345.4" preserveAspectRatio="xMidYMid meet" version="1" viewBox="0.0 -5.5 450.0 345.4" width="450" zoomAndPan="magnify"><defs><clipPath id="a"><path d="M 15 260 L 148 260 L 148 339.859375 L 15 339.859375 Z M 15 260"/></clipPath><clipPath id="b"><path d="M 144 165 L 437 165 L 437 339.859375 L 144 339.859375 Z M 144 165"/></clipPath></defs><g><g id="change1_1"><path d="M 436.753906 166.929688 C 428.015625 165.605469 418.984375 165.019531 409.804688 165.238281 C 406.796875 165.238281 403.785156 165.386719 400.773438 165.605469 C 390.785156 166.269531 380.578125 167.808594 370.226562 170.230469 C 367.949219 170.671875 365.746094 171.261719 363.472656 171.847656 C 355.175781 173.976562 346.875 176.621094 338.507812 179.703125 C 336.597656 180.4375 334.613281 181.171875 332.703125 181.980469 C 325.433594 184.84375 318.164062 188.074219 310.820312 191.671875 C 309.132812 192.480469 307.445312 193.363281 305.757812 194.171875 C 300.6875 196.8125 295.550781 199.605469 290.484375 202.542969 L 161.101562 127.351562 C 166.019531 124.484375 171.011719 121.769531 175.933594 119.199219 C 177.621094 118.390625 179.3125 117.507812 181 116.703125 C 188.269531 113.105469 195.539062 109.800781 202.808594 107.011719 C 204.71875 106.203125 206.699219 105.394531 208.609375 104.734375 C 216.90625 101.574219 225.203125 98.933594 233.429688 96.804688 C 235.703125 96.214844 237.90625 95.628906 240.183594 95.1875 C 250.464844 92.765625 260.671875 91.222656 270.65625 90.488281 C 273.667969 90.269531 276.605469 90.121094 279.539062 90.046875 C 289.015625 89.828125 298.339844 90.339844 307.371094 91.738281 L 436.753906 166.929688" fill="#ffc97b"/></g><g id="change2_1"><path d="M 167.328125 333.691406 L 37.945312 258.503906 C 35.683594 255.167969 33.417969 251.835938 31.15625 248.5 L 160.535156 323.691406 C 162.800781 327.023438 165.0625 330.355469 167.328125 333.691406" fill="#b27b53"/></g><g clip-path="url(#a)" id="change2_24"><path d="M 147.761719 339.859375 L 18.382812 264.671875 C 17.25 263.273438 16.167969 261.902344 15.035156 260.558594 L 144.417969 335.75 C 145.546875 337.09375 146.632812 338.460938 147.761719 339.859375" fill="#b27b53"/></g><g id="change1_2"><path d="M 290.484375 202.542969 C 289.015625 203.347656 287.546875 204.230469 286.078125 205.183594 C 284.460938 206.066406 282.917969 207.019531 281.304688 207.976562 C 275.28125 211.71875 269.261719 215.613281 263.238281 219.796875 C 261.847656 220.824219 260.378906 221.78125 258.90625 222.808594 C 253.328125 226.847656 247.675781 231.03125 242.09375 235.4375 C 240.769531 236.464844 239.375 237.566406 238.054688 238.667969 C 232.765625 242.851562 227.480469 247.257812 222.265625 251.8125 C 221.019531 252.988281 219.769531 254.089844 218.523438 255.191406 C 213.527344 259.59375 208.609375 264.222656 203.6875 268.921875 C 202.515625 270.09375 201.339844 271.195312 200.164062 272.445312 C 195.464844 277 190.765625 281.699219 186.140625 286.617188 C 184.964844 287.867188 183.863281 289.042969 182.761719 290.289062 C 178.28125 295.0625 173.878906 299.910156 169.542969 304.902344 C 168.515625 306.074219 167.488281 307.324219 166.386719 308.574219 C 162.203125 313.492188 158.015625 318.558594 153.90625 323.699219 C 152.878906 324.945312 151.847656 326.195312 150.894531 327.515625 C 148.691406 330.234375 146.5625 332.953125 144.433594 335.742188 L 15.050781 260.550781 C 17.105469 257.90625 19.160156 255.191406 21.21875 252.621094 C 22.246094 251.296875 23.199219 250.050781 24.226562 248.800781 C 28.339844 243.660156 32.527344 238.667969 36.710938 233.75 C 37.8125 232.5 38.839844 231.253906 39.941406 230.003906 C 44.273438 225.011719 48.605469 220.164062 53.085938 215.390625 C 54.1875 214.214844 55.289062 212.96875 56.464844 211.792969 C 61.015625 206.871094 65.714844 202.171875 70.414062 197.546875 C 71.589844 196.371094 72.765625 195.199219 74.015625 194.023438 C 78.933594 189.324219 83.851562 184.699219 88.773438 180.292969 C 90.023438 179.191406 91.34375 178.015625 92.59375 176.988281 C 97.804688 172.363281 103.019531 167.957031 108.304688 163.769531 C 109.699219 162.671875 111.023438 161.566406 112.417969 160.539062 C 117.996094 156.058594 123.578125 151.875 129.160156 147.910156 C 130.628906 146.882812 132.023438 145.929688 133.417969 144.898438 C 139.4375 140.714844 145.53125 136.75 151.554688 133.003906 C 153.171875 132.050781 154.710938 131.09375 156.253906 130.214844 C 157.871094 129.183594 159.484375 128.304688 161.101562 127.351562 L 290.484375 202.542969" fill="#ffc97b"/></g><g id="change2_2"><path d="M 409.804688 165.238281 C 406.796875 165.238281 403.785156 165.386719 400.773438 165.605469 L 270.65625 90.488281 C 273.667969 90.269531 276.605469 90.121094 279.539062 90.046875 L 409.804688 165.238281" fill="#b27b53"/></g><g id="change2_3"><path d="M 370.226562 170.230469 C 367.949219 170.671875 365.746094 171.261719 363.472656 171.847656 L 233.429688 96.804688 C 235.703125 96.214844 237.90625 95.628906 240.183594 95.1875 L 370.226562 170.230469" fill="#b27b53"/></g><g id="change2_4"><path d="M 338.507812 179.703125 C 336.597656 180.4375 334.613281 181.171875 332.703125 181.980469 L 202.808594 107.011719 C 204.71875 106.203125 206.699219 105.394531 208.609375 104.734375 L 338.507812 179.703125" fill="#b27b53"/></g><g id="change2_5"><path d="M 310.820312 191.671875 C 309.132812 192.480469 307.445312 193.363281 305.757812 194.171875 L 175.933594 119.199219 C 177.621094 118.390625 179.3125 117.507812 181 116.703125 L 310.820312 191.671875" fill="#b27b53"/></g><g id="change2_6"><path d="M 286.078125 205.183594 C 284.460938 206.066406 282.917969 207.019531 281.304688 207.976562 L 151.554688 133.003906 C 153.171875 132.050781 154.710938 131.09375 156.253906 130.214844 L 286.078125 205.183594" fill="#b27b53"/></g><g id="change2_7"><path d="M 263.238281 219.796875 C 261.847656 220.824219 260.378906 221.78125 258.90625 222.808594 L 129.160156 147.910156 C 130.628906 146.882812 132.023438 145.929688 133.417969 144.898438 L 263.238281 219.796875" fill="#b27b53"/></g><g id="change2_8"><path d="M 242.09375 235.4375 C 240.769531 236.464844 239.375 237.566406 238.054688 238.667969 L 108.304688 163.769531 C 109.699219 162.671875 111.023438 161.566406 112.417969 160.539062 L 242.09375 235.4375" fill="#b27b53"/></g><g id="change2_9"><path d="M 222.265625 251.8125 C 221.019531 252.988281 219.769531 254.089844 218.523438 255.191406 L 88.773438 180.292969 C 90.023438 179.191406 91.34375 178.015625 92.59375 176.988281 L 222.265625 251.8125" fill="#b27b53"/></g><g id="change2_10"><path d="M 203.6875 268.921875 C 202.515625 270.09375 201.339844 271.195312 200.164062 272.445312 L 70.414062 197.546875 C 71.589844 196.371094 72.765625 195.199219 74.015625 194.023438 L 203.6875 268.921875" fill="#b27b53"/></g><g id="change2_11"><path d="M 186.140625 286.617188 C 184.964844 287.867188 183.863281 289.042969 182.761719 290.289062 L 53.085938 215.390625 C 54.1875 214.214844 55.289062 212.96875 56.464844 211.792969 L 186.140625 286.617188" fill="#b27b53"/></g><g id="change2_12"><path d="M 169.542969 304.902344 C 168.515625 306.074219 167.488281 307.324219 166.386719 308.574219 L 36.710938 233.75 C 37.8125 232.5 38.839844 231.253906 39.941406 230.003906 L 169.542969 304.902344" fill="#b27b53"/></g><g id="change2_13"><path d="M 153.90625 323.699219 C 152.878906 324.945312 151.847656 326.195312 150.894531 327.515625 L 21.21875 252.621094 C 22.246094 251.296875 23.199219 250.050781 24.226562 248.800781 L 153.90625 323.699219" fill="#b27b53"/></g><g clip-path="url(#b)" id="change3_3"><path d="M 290.457031 202.546875 C 341.242188 173.222656 392.070312 160.171875 436.773438 166.957031 C 435.699219 169.574219 434.578125 172.214844 433.460938 174.910156 C 429.28125 174.25 425.007812 173.804688 420.683594 173.492188 C 418.445312 179.425781 416.210938 185.359375 413.925781 191.316406 C 375.578125 188.824219 333.042969 201.066406 290.539062 225.605469 C 248.035156 250.144531 205.558594 286.984375 167.328125 333.691406 C 165.0625 330.355469 162.800781 327.023438 160.535156 323.691406 C 156.230469 328.980469 151.972656 334.355469 147.761719 339.859375 C 146.632812 338.460938 145.546875 337.09375 144.417969 335.75 C 188.933594 277.457031 239.671875 231.867188 290.457031 202.546875" fill="#814722"/></g><g id="change2_14"><path d="M 390.804688 167.046875 L 380.453125 161.03125 C 390.097656 133.019531 399.691406 105.03125 409.238281 77.074219 L 419.589844 83.089844 C 410.039062 111.046875 400.445312 139.035156 390.804688 167.046875" fill="#b27b53"/></g><g id="change2_15"><path d="M 338.578125 179.988281 L 328.226562 173.972656 C 333.121094 145.40625 337.972656 116.976562 342.871094 88.464844 L 353.222656 94.480469 C 348.324219 122.992188 343.472656 151.421875 338.578125 179.988281" fill="#b27b53"/></g><g id="change2_16"><path d="M 285.585938 205.617188 L 275.234375 199.601562 C 274.738281 173.179688 274.144531 146.867188 273.648438 120.441406 L 284 126.460938 C 284.496094 152.882812 285.089844 179.195312 285.585938 205.617188" fill="#b27b53"/></g><g id="change4_1"><path d="M 289.65625 116.054688 L 279.308594 110.039062 C 334.949219 77.914062 390.648438 63.605469 439.648438 71.007812 L 450 77.023438 C 401 69.617188 345.300781 83.929688 289.65625 116.054688" fill="#ffe5cf"/></g><g id="change2_17"><path d="M 232.722656 242.992188 L 222.371094 236.976562 C 216.535156 215.09375 210.695312 193.15625 204.765625 171.277344 L 215.113281 177.289062 C 221.046875 199.171875 226.886719 221.109375 232.722656 242.992188" fill="#b27b53"/></g><g id="change2_18"><path d="M 180.691406 292.402344 L 170.339844 286.386719 C 159.964844 270.6875 149.636719 254.851562 139.261719 239.09375 L 149.609375 245.109375 C 159.988281 260.867188 170.316406 276.703125 180.691406 292.402344" fill="#b27b53"/></g><g id="change3_1"><path d="M 289.65625 116.054688 C 345.300781 83.929688 401 69.617188 450 77.023438 C 448.925781 79.636719 447.761719 82.363281 446.6875 84.925781 C 441.191406 84.105469 435.601562 83.554688 429.964844 83.246094 C 419.714844 110.914062 409.460938 138.578125 399.257812 166.214844 C 396.4375 166.4375 393.667969 166.636719 390.804688 167.046875 C 400.445312 139.035156 410.039062 111.046875 419.589844 83.089844 C 401.742188 83.246094 383.203125 85.964844 364.246094 91.1875 C 358.550781 119.785156 352.855469 148.378906 347.113281 176.945312 C 344.253906 177.898438 341.4375 178.929688 338.578125 179.988281 C 343.472656 151.421875 348.324219 122.992188 353.222656 94.480469 C 334.125 100.648438 314.757812 109.132812 295.347656 119.90625 C 294.953125 146.84375 294.558594 173.726562 294.214844 200.636719 C 292.78125 201.4375 291.339844 202.253906 289.898438 203.085938 C 288.457031 203.921875 287.015625 204.765625 285.585938 205.617188 C 285.089844 179.195312 284.496094 152.882812 284 126.457031 C 264.640625 138.066406 245.238281 151.96875 226.21875 167.804688 C 231.210938 190.605469 236.253906 213.324219 241.25 236.179688 C 238.394531 238.421875 235.582031 240.640625 232.722656 242.992188 C 226.886719 221.109375 221.046875 199.171875 215.113281 177.289062 C 196.238281 193.910156 177.742188 212.574219 159.910156 233.015625 C 169.628906 249.847656 179.351562 266.683594 189.070312 283.519531 C 186.261719 286.382812 183.453125 289.40625 180.691406 292.402344 C 170.316406 276.703125 159.988281 260.867188 149.613281 245.109375 C 143.996094 251.914062 138.429688 258.90625 133 266.03125 C 131.824219 264.769531 130.738281 263.34375 129.65625 261.972656 C 178.429688 198.121094 234.015625 148.179688 289.65625 116.054688" fill="#814722"/></g><g id="change1_3"><path d="M 133 266.03125 L 122.648438 260.015625 C 121.472656 258.753906 120.390625 257.328125 119.304688 255.960938 L 129.65625 261.972656 C 130.738281 263.34375 131.824219 264.769531 133 266.03125" fill="#ffc97b"/></g><g id="change4_2"><path d="M 129.65625 261.972656 L 119.304688 255.960938 C 168.078125 192.105469 223.664062 142.164062 279.308594 110.039062 L 289.65625 116.054688 C 234.015625 148.179688 178.429688 198.121094 129.65625 261.972656" fill="#ffe5cf"/></g><g id="change2_19"><path d="M 271.5 97.949219 L 261.148438 91.933594 C 270.792969 63.921875 280.386719 35.933594 289.933594 7.976562 L 300.28125 13.992188 C 290.734375 41.949219 281.140625 69.9375 271.5 97.949219" fill="#b27b53"/></g><g id="change2_20"><path d="M 219.273438 110.890625 L 208.921875 104.875 C 213.820312 76.308594 218.667969 47.878906 223.566406 19.367188 L 233.914062 25.382812 C 229.019531 53.894531 224.167969 82.324219 219.273438 110.890625" fill="#b27b53"/></g><g id="change2_21"><path d="M 166.28125 136.519531 L 155.933594 130.507812 C 155.433594 104.082031 154.84375 77.769531 154.34375 51.34375 L 164.695312 57.359375 C 165.191406 83.785156 165.785156 110.097656 166.28125 136.519531" fill="#b27b53"/></g><g id="change4_3"><path d="M 170.355469 46.957031 L 160.003906 40.941406 C 215.648438 8.816406 271.347656 -5.492188 320.34375 1.910156 L 330.695312 7.925781 C 281.695312 0.519531 225.996094 14.832031 170.355469 46.957031" fill="#ffe5cf"/></g><g id="change2_22"><path d="M 113.417969 173.894531 L 103.066406 167.878906 C 97.230469 145.996094 91.390625 124.0625 85.460938 102.179688 L 95.808594 108.191406 C 101.742188 130.074219 107.578125 152.011719 113.417969 173.894531" fill="#b27b53"/></g><g id="change2_23"><path d="M 61.386719 223.304688 L 51.035156 217.289062 C 40.660156 201.589844 30.332031 185.753906 19.957031 169.996094 L 30.308594 176.011719 C 40.683594 191.769531 51.011719 207.605469 61.386719 223.304688" fill="#b27b53"/></g><g id="change3_2"><path d="M 170.355469 46.957031 C 225.996094 14.832031 281.695312 0.519531 330.695312 7.925781 C 329.621094 10.539062 328.457031 13.265625 327.382812 15.828125 C 321.886719 15.007812 316.296875 14.457031 310.660156 14.148438 C 300.410156 41.816406 290.15625 69.480469 279.949219 97.117188 C 277.132812 97.339844 274.363281 97.539062 271.5 97.949219 C 281.140625 69.9375 290.734375 41.949219 300.28125 13.992188 C 282.4375 14.148438 263.898438 16.867188 244.941406 22.09375 C 239.246094 50.6875 233.554688 79.28125 227.8125 107.851562 C 224.949219 108.800781 222.132812 109.832031 219.273438 110.890625 C 224.167969 82.324219 229.019531 53.894531 233.914062 25.382812 C 214.820312 31.550781 195.449219 40.035156 176.039062 50.808594 C 175.648438 77.746094 175.253906 104.628906 174.910156 131.539062 C 173.476562 132.339844 172.035156 133.15625 170.59375 133.988281 C 169.152344 134.820312 167.710938 135.667969 166.28125 136.519531 C 165.785156 110.097656 165.191406 83.785156 164.695312 57.359375 C 145.335938 68.96875 125.933594 82.871094 106.914062 98.707031 C 111.90625 121.507812 116.949219 144.226562 121.945312 167.082031 C 119.089844 169.328125 116.277344 171.542969 113.417969 173.894531 C 107.578125 152.011719 101.742188 130.074219 95.808594 108.191406 C 76.933594 124.8125 58.4375 143.476562 40.605469 163.917969 C 50.324219 180.753906 60.046875 197.585938 69.769531 214.421875 C 66.957031 217.285156 64.148438 220.308594 61.386719 223.304688 C 51.011719 207.605469 40.683594 191.769531 30.308594 176.011719 C 24.691406 182.816406 19.121094 189.808594 13.695312 196.933594 C 12.519531 195.671875 11.433594 194.246094 10.351562 192.878906 C 59.125 129.023438 114.710938 79.082031 170.355469 46.957031" fill="#814722"/></g><g id="change1_4"><path d="M 13.695312 196.933594 L 3.34375 190.921875 C 2.167969 189.65625 1.085938 188.234375 0 186.863281 L 10.351562 192.878906 C 11.433594 194.246094 12.519531 195.671875 13.695312 196.933594" fill="#ffc97b"/></g><g id="change4_4"><path d="M 10.351562 192.878906 L 0 186.863281 C 48.773438 123.007812 104.359375 73.070312 160.003906 40.941406 L 170.355469 46.957031 C 114.710938 79.082031 59.125 129.023438 10.351562 192.878906" fill="#ffe5cf"/></g></g></svg>